<?xml version="1.0" encoding="UTF-8"?>
<svg xmlns="http://www.w3.org/2000/svg" viewBox="0 0 133.86 167.7">
  <defs>
    <style>
      .cls-1, .cls-2 {
        fill: #403b31;
      }

      .cls-3 {
        isolation: isolate;
      }

      .cls-2 {
        mix-blend-mode: multiply;
        opacity: .2;
      }
    </style>
  </defs>
  <g class="cls-3">
    <g id="Layer_2" data-name="Layer 2">
      <g id="Layer_1-2" data-name="Layer 1">
        <g>
          <path class="cls-1" d="M78.51,0C47.99,0,23.17,24.83,23.17,55.35v33.63h-5.87c-1.45-3.09-4.58-5.23-8.21-5.23-5.01,0-9.08,4.07-9.08,9.08s4.07,9.08,9.08,9.08c3.63,0,6.77-2.15,8.22-5.24h5.87v50.3c0,2.12,1.72,3.84,3.84,3.84s3.84-1.72,3.84-3.84v-50.3h6.34v53.73c-3.1,1.45-5.26,4.59-5.26,8.23,0,5.01,4.07,9.08,9.08,9.08s9.08-4.07,9.08-9.08c0-3.62-2.14-6.75-5.22-8.21v-53.75h6.34v50.28c0,2.12,1.72,3.84,3.84,3.84s3.84-1.72,3.84-3.84v-50.28h19.6c22.78,0,41.32-18.54,41.32-41.32S101.3,14.03,78.51,14.03s-41.32,18.54-41.32,41.32v33.63h-6.34v-33.63c0-26.28,21.38-47.66,47.66-47.66s47.66,21.38,47.66,47.66-21.38,47.66-47.66,47.66h-13.36c-2.12,0-3.84,1.72-3.84,3.84s1.72,3.84,3.84,3.84h13.36c30.52,0,55.35-24.83,55.35-55.35S109.03,0,78.51,0ZM9.08,95.76c-1.62,0-2.93-1.32-2.93-2.93s1.31-2.93,2.93-2.93,2.93,1.31,2.93,2.93-1.32,2.93-2.93,2.93ZM41.02,161.55c-1.62,0-2.93-1.32-2.93-2.93s1.32-2.93,2.93-2.93,2.93,1.32,2.93,2.93-1.32,2.93-2.93,2.93ZM44.88,55.35c0-18.54,15.09-33.63,33.63-33.63s33.63,15.09,33.63,33.63-15.09,33.63-33.63,33.63h-19.6v-33.63c0-10.81,8.79-19.6,19.6-19.6s19.6,8.79,19.6,19.6-8.79,19.6-19.6,19.6h-13.33c-2.12,0-3.84,1.72-3.84,3.84s1.72,3.84,3.84,3.84h13.33c15.05,0,27.29-12.24,27.29-27.29s-12.24-27.29-27.29-27.29-27.29,12.24-27.29,27.29v33.63h-6.34v-33.63Z"/>
          <g>
            <rect class="cls-2" x="51.22" y="86.19" width="7.69" height="2.79"/>
            <rect class="cls-2" x="23.17" y="86.19" width="7.69" height="2.79"/>
            <rect class="cls-2" x="23.17" y="96.67" width="7.69" height="2.79"/>
            <rect class="cls-2" x="51.22" y="96.67" width="7.69" height="2.79"/>
            <rect class="cls-2" x="34.07" y="88.98" width="3.12" height="7.69"/>
            <rect class="cls-2" x="44.88" y="88.98" width="3.12" height="7.69"/>
          </g>
        </g>
      </g>
    </g>
  </g>
</svg>